<svg xmlns="http://www.w3.org/2000/svg" width="1440" height="900" viewBox="0 0 1440 900" role="img" aria-labelledby="title desc">
<title id="title">IRON ECHO — HUD боя — макет</title>
<desc id="desc">Двумерный макет интерфейса. Не скриншот Unreal Engine. Все показанные игровые значения — примеры.</desc>
<rect x="0" y="0" width="1440" height="900" rx="0" fill="#11151B"/>
<text x="24" y="24" fill="#B7C0CB" font-family="DejaVu Sans, Arial, sans-serif" font-size="16" font-weight="400" text-anchor="start">МАКЕТ • ДАННЫЕ ПРИМЕРА • НЕ КАДР UNREAL</text>
<rect x="24" y="44" width="400" height="144" rx="4" fill="#1A2028"/>
<text x="44" y="78" fill="#F3F0E8" font-family="DejaVu Sans, Arial, sans-serif" font-size="22" font-weight="700" text-anchor="start">Игрок</text>
<text x="44" y="108" fill="#F3F0E8" font-family="DejaVu Sans, Arial, sans-serif" font-size="16" font-weight="400" text-anchor="start">Целостность  82 / 100</text>
<rect x="44" y="120" width="360" height="14" rx="2" fill="#252D38"/>
<rect x="44" y="120" width="295.2" height="14" rx="2" fill="#E9B15A"/>
<text x="44" y="164" fill="#B7C0CB" font-family="DejaVu Sans, Arial, sans-serif" font-size="16" font-weight="400" text-anchor="start">Выносливость  64 / 100</text>
<rect x="1016" y="44" width="400" height="144" rx="4" fill="#1A2028"/>
<text x="1036" y="78" fill="#F3F0E8" font-family="DejaVu Sans, Arial, sans-serif" font-size="22" font-weight="700" text-anchor="start">Противник</text>
<text x="1036" y="108" fill="#F3F0E8" font-family="DejaVu Sans, Arial, sans-serif" font-size="16" font-weight="400" text-anchor="start">Целостность  76 / 100</text>
<rect x="1036" y="120" width="360" height="14" rx="2" fill="#252D38"/>
<rect x="1036" y="120" width="273.6" height="14" rx="2" fill="#72CCD5"/>
<text x="1036" y="164" fill="#B7C0CB" font-family="DejaVu Sans, Arial, sans-serif" font-size="16" font-weight="400" text-anchor="start">Выносливость  58 / 100</text>
<rect x="570" y="44" width="300" height="112" rx="4" fill="#1A2028"/>
<text x="720" y="79" fill="#B7C0CB" font-family="DejaVu Sans, Arial, sans-serif" font-size="18" font-weight="600" text-anchor="middle">РАУНД 1 / 3</text>
<text x="720" y="131" fill="#F3F0E8" font-family="DejaVu Sans, Arial, sans-serif" font-size="40" font-weight="700" text-anchor="middle">02:14</text>
<text x="720" y="438" fill="#B7C0CB" font-family="DejaVu Sans, Arial, sans-serif" font-size="22" font-weight="600" text-anchor="middle">ЗОНА БОЯ</text>
<text x="720" y="469" fill="#B7C0CB" font-family="DejaVu Sans, Arial, sans-serif" font-size="18" font-weight="400" text-anchor="middle">Силуэты и руки противника должны оставаться свободными</text>
<rect x="896" y="804" width="520" height="72" rx="4" fill="#1A2028"/>
<g transform="translate(916 828) scale(1.0)" fill="none" stroke="#90CBA9" stroke-width="1.8" stroke-linecap="round" stroke-linejoin="round"><path d="M3 12l6 6L21 5"/></g>
<text x="956" y="847" fill="#90CBA9" font-family="DejaVu Sans, Arial, sans-serif" font-size="18" font-weight="600" text-anchor="start">Управление активно</text>
<rect x="24" y="820" width="180" height="56" rx="4" fill="#1A2028" stroke="#91A0B0" stroke-width="1"/>
<g transform="translate(42 836) scale(1.0)" fill="none" stroke="#F3F0E8" stroke-width="1.8" stroke-linecap="round" stroke-linejoin="round"><path d="M7 3v18M17 3v18"/></g>
<text x="80" y="855" fill="#F3F0E8" font-family="DejaVu Sans, Arial, sans-serif" font-size="18" font-weight="600" text-anchor="start">Пауза</text>
<text x="226" y="854" fill="#B7C0CB" font-family="DejaVu Sans, Arial, sans-serif" font-size="16" font-weight="400" text-anchor="start">Esc</text>
</svg>
